<svg width="160" height="56" viewBox="0 0 160 56" fill="none" xmlns="http://www.w3.org/2000/svg">
<path d="M32.3027 16.0167C38.8717 16.0167 44.2225 21.3936 44.2225 27.9948C44.2225 34.596 38.8709 39.9761 32.3027 39.9761C29.141 39.9761 26.1087 38.7139 23.873 36.4673C21.6373 34.2207 20.3813 31.1736 20.3813 27.9964C20.3813 24.8192 21.6373 21.7721 23.873 19.5255C26.1087 17.2789 29.141 16.0167 32.3027 16.0167V16.0167ZM32.3027 20.0092C30.731 20.0088 29.1946 20.4768 27.8876 21.354C26.5806 22.2311 25.5618 23.478 24.96 24.937C24.3582 26.396 24.2004 28.0015 24.5066 29.5506C24.8128 31.0997 25.5692 32.5227 26.6802 33.6398C27.7912 34.7569 29.2069 35.5179 30.7482 35.8265C32.2896 36.1351 33.8874 35.9775 35.3396 35.3737C36.7919 34.7698 38.0333 33.7467 38.907 32.4339C39.7806 31.121 40.2473 29.5773 40.2479 27.998C40.2492 26.9491 40.0447 25.9102 39.6459 24.9409C39.2471 23.9716 38.6619 23.0908 37.9239 22.3491C37.1858 21.6074 36.3094 21.0192 35.3449 20.6184C34.3803 20.2176 33.3465 20.0119 32.3027 20.0131V20.0092Z" fill="#36D1DC"/>
<path d="M68.2442 16.0167H72.4282L61.7664 39.9546L57.8521 31.4062L54.0734 39.9546L43.0737 16.0167H47.2236L54.0726 30.4681L55.7256 26.7259L50.8746 16.0167H55.0244L61.7664 30.4681L68.2442 16.0167Z" fill="#36D1DC"/>
<path d="M96.7588 40L90.4872 29.8934H88.2211V40H84.2616V25.9496H88.0181L81.7512 16.0167H92.1418C92.1418 16.0167 100.06 16.0167 100.06 22.9511C100.06 27.1675 97.1498 28.8341 94.8488 29.4805L101.391 39.9952L96.7588 40ZM92.6533 25.9153C93.7027 25.8133 96.1052 25.3032 96.1052 22.9566C96.1052 19.998 92.1457 19.998 92.1457 19.998H88.9651L92.6533 25.9153Z" fill="#36D1DC"/>
<path d="M21.1951 39.9609L10.5976 16L0 39.9609H4.63687L6.25256 36.0171H13.6402L12.1553 32.0725H7.89522L10.5976 25.4012L16.559 39.9609H21.1951Z" fill="#36D1DC"/>
<path d="M41.3822 39.9609L26.8069 24.0199H31.6135L46.1404 39.9609H41.3822Z" fill="#36D1DC"/>
<path d="M79.0364 16.0199H75.1118V39.9617H79.0364V16.0199Z" fill="#36D1DC"/>
<path d="M117.551 20.0139H108.278V24.0861H116.155V28.0793H108.278V35.9876H117.551V39.9809H104.305V16.0167H117.551V20.0139Z" fill="#36D1DC"/>
</svg>
