<svg width="160" height="56" viewBox="0 0 160 56" fill="none" xmlns="http://www.w3.org/2000/svg">
<g clip-path="url(#clip0)">
<path d="M0 16C0 12.6863 2.68629 10 6 10H12V22H6C2.68629 22 0 19.3137 0 16V16Z" fill="#F24E1E"/>
<path d="M12 10H18C21.3137 10 24 12.6863 24 16V16C24 19.3137 21.3137 22 18 22H12V10Z" fill="#FF7262"/>
<path d="M0 28C0 24.6863 2.68629 22 6 22H12V34H6C2.68629 34 0 31.3137 0 28V28Z" fill="#A259FF"/>
<rect x="12" y="22" width="12" height="12" rx="6" fill="#1ABCFE"/>
<path d="M0 40C0 36.6863 2.68629 34 6 34H12V40C12 43.3137 9.31371 46 6 46V46C2.68629 46 0 43.3137 0 40V40Z" fill="#0ACF83"/>
<path d="M36.52 18V38.16L39.12 38.17V28.57H45.37V26.03H39.11V20.53H47.26V18H36.52ZM51.92 22.1C52.3709 22.1 52.8033 21.9209 53.1221 21.6021C53.4409 21.2833 53.62 20.8509 53.62 20.4C53.62 19.9491 53.4409 19.5167 53.1221 19.1979C52.8033 18.8791 52.3709 18.7 51.92 18.7C51.4692 18.7 51.0367 18.8791 50.7179 19.1979C50.3991 19.5167 50.22 19.9491 50.22 20.4C50.22 20.8509 50.3991 21.2833 50.7179 21.6021C51.0367 21.9209 51.4692 22.1 51.92 22.1V22.1ZM50.61 24.63V38.17H53.21V24.63H50.61V24.63Z" fill="black"/>
<path fill-rule="evenodd" clip-rule="evenodd" d="M62.82 24.24C59.38 24.24 56.98 27.15 56.98 30.61C56.98 34.07 59.38 36.98 62.82 36.98C64.4 36.98 65.7 36.38 66.65 35.38V37.18C66.6566 37.7178 66.5565 38.2516 66.3556 38.7506C66.1546 39.2495 65.8568 39.7036 65.4792 40.0867C65.1017 40.4699 64.652 40.7743 64.1561 40.9826C63.6601 41.1908 63.1279 41.2987 62.59 41.3C61.76 41.3 60.94 40.98 60.29 40.52L58.99 42.77C59.9952 43.4198 61.1572 43.7862 62.3533 43.8306C63.5494 43.875 64.7353 43.5957 65.786 43.0223C66.8366 42.4489 67.713 41.6025 68.3227 40.5724C68.9323 39.5424 69.2527 38.3669 69.25 37.17V24.64H66.65V25.85C65.7 24.85 64.4 24.25 62.82 24.25V24.24ZM59.57 30.61C59.57 28.46 61.21 26.77 63.11 26.77C65.01 26.77 66.64 28.47 66.64 30.61C66.64 32.76 65 34.44 63.11 34.44C61.21 34.44 59.57 32.76 59.57 30.61V30.61Z" fill="black"/>
<path d="M78.59 26.7701C77.8464 26.7832 77.1378 27.0885 76.6176 27.62C76.0973 28.1514 75.8072 28.8663 75.81 29.6101V38.1701H73.21V24.6301H75.81V25.8701C76.199 25.3545 76.7042 24.9381 77.2847 24.6549C77.8651 24.3716 78.5042 24.2295 79.15 24.2401C80.97 24.2401 82.37 25.1401 83.17 26.5201C83.6163 25.8282 84.2271 25.2579 84.9479 24.86C85.6686 24.4621 86.4767 24.2491 87.3 24.2401C90.25 24.2401 92.1 26.6201 92.1 29.5701V38.1701H89.52V29.6001C89.5227 28.8563 89.2326 28.1414 88.7123 27.61C88.1921 27.0785 87.4836 26.7732 86.74 26.7601C85.9964 26.7732 85.2878 27.0785 84.7676 27.61C84.2473 28.1414 83.9572 28.8563 83.96 29.6001V38.1601H81.36V29.6001C81.3628 28.858 81.074 28.1446 80.5559 27.6134C80.0378 27.0822 79.3318 26.7758 78.59 26.7601V26.7701Z" fill="black"/>
<path fill-rule="evenodd" clip-rule="evenodd" d="M105.93 26.17C105.34 25.5544 104.63 25.0657 103.844 24.7338C103.058 24.402 102.213 24.234 101.36 24.24C97.5 24.24 94.76 27.5 94.76 31.4C94.76 35.3 97.5 38.56 101.36 38.56C102.213 38.5644 103.057 38.3955 103.843 38.0638C104.629 37.732 105.339 37.2443 105.93 36.63V38.17H108.52V24.63H105.92V26.17H105.93ZM97.35 31.4C97.35 28.82 99.33 26.77 101.64 26.77C103.94 26.77 105.93 28.82 105.93 31.4C105.93 33.98 103.95 36.02 101.64 36.02C99.34 36.02 97.35 33.98 97.35 31.4V31.4Z" fill="black"/>
</g>
<defs>
<clipPath id="clip0">
<rect width="160" height="56" fill="white"/>
</clipPath>
</defs>
</svg>
