<svg width="160" height="56" viewBox="0 0 160 56" fill="none" xmlns="http://www.w3.org/2000/svg">
<g clip-path="url(#clip0)">
<path d="M1.04 39C0.826667 39 0.634667 38.9253 0.464 38.776C0.314667 38.6053 0.24 38.4133 0.24 38.2V17.4C0.24 17.1653 0.314667 16.9733 0.464 16.824C0.634667 16.6747 0.826667 16.6 1.04 16.6H10C12.7307 16.6 14.8747 17.2293 16.432 18.488C18.0107 19.7467 18.8 21.5813 18.8 23.992C18.8 26.3813 18.0213 28.184 16.464 29.4C14.9067 30.5947 12.752 31.192 10 31.192H6.192V38.2C6.192 38.4347 6.10667 38.6267 5.936 38.776C5.78667 38.9253 5.59467 39 5.36 39H1.04ZM9.84 26.776C10.7787 26.776 11.5147 26.5413 12.048 26.072C12.5813 25.5813 12.848 24.8667 12.848 23.928C12.848 23.0533 12.592 22.36 12.08 21.848C11.5893 21.3147 10.8427 21.048 9.84 21.048H6.096V26.776H9.84ZM22.665 39C22.4517 39 22.2597 38.9253 22.089 38.776C21.9397 38.6053 21.865 38.4133 21.865 38.2V17.4C21.865 17.1653 21.9397 16.9733 22.089 16.824C22.2597 16.6747 22.4517 16.6 22.665 16.6H26.953C27.1877 16.6 27.3797 16.6747 27.529 16.824C27.6997 16.9733 27.785 17.1653 27.785 17.4V38.2C27.785 38.4347 27.6997 38.6267 27.529 38.776C27.3797 38.9253 27.1877 39 26.953 39H22.665ZM41.424 39.32C38.3733 39.32 35.984 38.584 34.256 37.112C32.5493 35.6187 31.6427 33.464 31.536 30.648C31.5147 30.072 31.504 29.1333 31.504 27.832C31.504 26.5093 31.5147 25.5493 31.536 24.952C31.6427 22.1787 32.5707 20.0453 34.32 18.552C36.0693 17.0373 38.4373 16.28 41.424 16.28C43.3013 16.28 44.9867 16.6 46.48 17.24C47.9733 17.8587 49.1467 18.7547 50 19.928C50.8747 21.08 51.3227 22.4347 51.344 23.992V24.056C51.344 24.2267 51.2693 24.376 51.12 24.504C50.992 24.6107 50.8427 24.664 50.672 24.664H46.352C46.0747 24.664 45.8613 24.6107 45.712 24.504C45.5627 24.376 45.4347 24.152 45.328 23.832C45.0293 22.744 44.56 21.9867 43.92 21.56C43.28 21.112 42.4373 20.888 41.392 20.888C38.8747 20.888 37.5733 22.296 37.488 25.112C37.4667 25.688 37.456 26.5733 37.456 27.768C37.456 28.9627 37.4667 29.8693 37.488 30.488C37.5733 33.304 38.8747 34.712 41.392 34.712C42.4373 34.712 43.2907 34.488 43.952 34.04C44.6133 33.5707 45.072 32.8133 45.328 31.768C45.4133 31.448 45.5307 31.2347 45.68 31.128C45.8293 31 46.0533 30.936 46.352 30.936H50.672C50.864 30.936 51.024 31 51.152 31.128C51.3013 31.256 51.3653 31.416 51.344 31.608C51.3227 33.1653 50.8747 34.5307 50 35.704C49.1467 36.856 47.9733 37.752 46.48 38.392C44.9867 39.0107 43.3013 39.32 41.424 39.32ZM53.1475 39C52.9768 39 52.8168 38.936 52.6675 38.808C52.5395 38.6587 52.4755 38.4987 52.4755 38.328C52.4755 38.2 52.4862 38.104 52.5075 38.04L60.0275 17.496C60.0915 17.24 60.2302 17.0267 60.4435 16.856C60.6568 16.6853 60.9342 16.6 61.2755 16.6H66.0115C66.3528 16.6 66.6302 16.6853 66.8435 16.856C67.0568 17.0267 67.1955 17.24 67.2595 17.496L74.7475 38.04L74.8115 38.328C74.8115 38.4987 74.7368 38.6587 74.5875 38.808C74.4595 38.936 74.2995 39 74.1075 39H70.1715C69.6595 39 69.3182 38.776 69.1475 38.328L67.8995 35.064H59.3555L58.1395 38.328C57.9688 38.776 57.6168 39 57.0835 39H53.1475ZM66.6195 30.456L63.6435 22.008L60.6675 30.456H66.6195Z" fill="#002B7F"/>
</g>
<defs>
<clipPath id="clip0">
<rect width="160" height="56" fill="white"/>
</clipPath>
</defs>
</svg>
