<svg width="160" height="56" viewBox="0 0 160 56" fill="none" xmlns="http://www.w3.org/2000/svg">
<path d="M9.114 23.942C7.564 23.942 6.40667 24.4587 5.642 25.492C4.898 26.5253 4.526 28.1373 4.526 30.328V30.576C4.526 34.5853 6.045 36.59 9.083 36.59H12.896L9.238 34.854V31.041L16.213 34.389C16.6883 33.397 16.926 32.126 16.926 30.576V30.328C16.926 28.1373 16.5437 26.5253 15.779 25.492C15.035 24.4587 13.888 23.942 12.338 23.942H9.114ZM11.47 20.532C14.384 20.532 16.585 21.338 18.073 22.95C19.5817 24.5413 20.336 26.9593 20.336 30.204C20.336 32.56 19.9847 34.451 19.282 35.877L20.615 36.497V40.186L17.019 38.512C16.3163 38.9873 15.5103 39.3593 14.601 39.628C13.7123 39.876 12.679 40 11.501 40H9.951C4.061 40 1.116 36.7657 1.116 30.297V30.204C1.178 23.756 4.13333 20.532 9.982 20.532H11.47ZM48.3971 37.086C48.0457 38.016 47.4774 38.76 46.6921 39.318C45.9274 39.8553 45.0491 40.124 44.0571 40.124C43.3544 40.124 42.6931 40.0103 42.0731 39.783C41.4737 39.5557 40.9467 39.2353 40.4921 38.822C40.0374 38.4087 39.6757 37.9127 39.4071 37.334C39.1591 36.7347 39.0351 36.0733 39.0351 35.35V25.585C39.0351 24.4483 38.5494 23.88 37.5781 23.88C37.2681 23.88 37.0201 23.9833 36.8341 24.19C36.6687 24.3967 36.5241 24.6963 36.4001 25.089L32.4631 37.086H32.4941C32.2047 38.0367 31.6467 38.7807 30.8201 39.318C30.0141 39.8553 29.1151 40.124 28.1231 40.124C27.4204 40.124 26.7591 40.0103 26.1391 39.783C25.5397 39.5557 25.0127 39.2353 24.5581 38.822C24.1034 38.4087 23.7417 37.9127 23.4731 37.334C23.2251 36.7347 23.1011 36.0733 23.1011 35.35V20.532H26.7281V34.978C26.7281 36.1147 27.2137 36.683 28.1851 36.683C28.4951 36.683 28.7327 36.5797 28.8981 36.373C29.0841 36.1663 29.2391 35.8667 29.3631 35.474L33.3001 23.477C33.6101 22.547 34.1577 21.8133 34.9431 21.276C35.7491 20.718 36.6481 20.439 37.6401 20.439C38.3427 20.439 38.9937 20.5527 39.5931 20.78C40.2131 21.0073 40.7504 21.3277 41.2051 21.741C41.6597 22.1543 42.0111 22.6607 42.2591 23.26C42.5277 23.8387 42.6621 24.4897 42.6621 25.213V34.978C42.6621 36.1147 43.1477 36.683 44.1191 36.683C44.4291 36.683 44.6667 36.5797 44.8321 36.373C44.9974 36.1663 45.1524 35.8667 45.2971 35.474L50.4741 20.532H54.3181L48.3971 37.086ZM56.3716 20.532H59.7816V40H56.3716V20.532ZM65.9876 40H62.5776V20.532H65.9876V26.732L78.8836 20.346V24.252L65.8946 30.266L78.8836 36.404V40.186L65.9876 33.769V40ZM106.976 37.086C106.625 38.016 106.056 38.76 105.271 39.318C104.506 39.8553 103.628 40.124 102.636 40.124C101.933 40.124 101.272 40.0103 100.652 39.783C100.053 39.5557 99.5258 39.2353 99.0712 38.822C98.6165 38.4087 98.2548 37.9127 97.9862 37.334C97.7382 36.7347 97.6142 36.0733 97.6142 35.35V25.585C97.6142 24.4483 97.1285 23.88 96.1572 23.88C95.8472 23.88 95.5992 23.9833 95.4132 24.19C95.2478 24.3967 95.1032 24.6963 94.9792 25.089L91.0422 37.086H91.0732C90.7838 38.0367 90.2258 38.7807 89.3992 39.318C88.5932 39.8553 87.6942 40.124 86.7022 40.124C85.9995 40.124 85.3382 40.0103 84.7182 39.783C84.1188 39.5557 83.5918 39.2353 83.1372 38.822C82.6825 38.4087 82.3208 37.9127 82.0522 37.334C81.8042 36.7347 81.6802 36.0733 81.6802 35.35V20.532H85.3072V34.978C85.3072 36.1147 85.7928 36.683 86.7642 36.683C87.0742 36.683 87.3118 36.5797 87.4772 36.373C87.6632 36.1663 87.8182 35.8667 87.9422 35.474L91.8792 23.477C92.1892 22.547 92.7368 21.8133 93.5222 21.276C94.3282 20.718 95.2272 20.439 96.2192 20.439C96.9218 20.439 97.5728 20.5527 98.1722 20.78C98.7922 21.0073 99.3295 21.3277 99.7842 21.741C100.239 22.1543 100.59 22.6607 100.838 23.26C101.107 23.8387 101.241 24.4897 101.241 25.213V34.978C101.241 36.1147 101.727 36.683 102.698 36.683C103.008 36.683 103.246 36.5797 103.411 36.373C103.576 36.1663 103.731 35.8667 103.876 35.474L109.053 20.532H112.897L106.976 37.086ZM114.951 20.532H118.361V40H114.951V20.532ZM124.567 28.623H131.356C131.996 28.623 132.523 28.3957 132.937 27.941C133.371 27.4657 133.588 26.9077 133.588 26.267C133.588 25.957 133.526 25.6677 133.402 25.399C133.298 25.1097 133.143 24.8617 132.937 24.655C132.73 24.4277 132.492 24.252 132.224 24.128C131.976 24.004 131.697 23.942 131.387 23.942H124.567V28.623ZM130.86 20.532C131.934 20.532 132.854 20.687 133.619 20.997C134.404 21.2863 135.045 21.6997 135.541 22.237C136.037 22.7537 136.398 23.3633 136.626 24.066C136.874 24.748 136.998 25.4817 136.998 26.267C136.998 26.949 136.884 27.631 136.657 28.313C136.45 28.9743 136.099 29.5737 135.603 30.111C135.107 30.6483 134.466 31.0823 133.681 31.413C132.916 31.7437 131.976 31.909 130.86 31.909H129.279L137.153 36.311V40.403L124.567 32.746V40H121.157V20.532H130.86ZM155.003 23.942H144.773C144.174 23.942 143.657 24.1693 143.223 24.624C142.789 25.0787 142.572 25.6057 142.572 26.205C142.572 26.8457 142.779 27.3933 143.192 27.848C143.605 28.282 144.143 28.499 144.804 28.499H155.003V31.909H144.773C144.174 31.909 143.657 32.1363 143.223 32.591C142.789 33.0457 142.572 33.5727 142.572 34.172C142.572 34.8953 142.779 35.4843 143.192 35.939C143.605 36.373 144.143 36.59 144.804 36.59H155.003V40H145.3C144.163 40 143.202 39.8347 142.417 39.504C141.652 39.1733 141.022 38.7393 140.526 38.202C140.051 37.644 139.699 37.024 139.472 36.342C139.265 35.66 139.162 34.9573 139.162 34.234C139.162 33.4693 139.327 32.7253 139.658 32.002C139.989 31.258 140.526 30.6587 141.27 30.204C140.505 29.7493 139.958 29.15 139.627 28.406C139.317 27.662 139.162 26.949 139.162 26.267C139.162 25.461 139.276 24.7067 139.503 24.004C139.73 23.3013 140.082 22.6917 140.557 22.175C141.053 21.6583 141.683 21.2553 142.448 20.966C143.233 20.6767 144.184 20.532 145.3 20.532H155.003V23.942Z" fill="#1ABCFE"/>
</svg>
