<svg width="160" height="56" viewBox="0 0 160 56" fill="none" xmlns="http://www.w3.org/2000/svg">
<path d="M130.215 12H2V44H130.215V12Z" stroke="#232B19" stroke-width="3"/>
<path d="M17.4671 27.4837C17.4671 27.3026 17.4606 27.0866 17.4477 26.8358C17.4347 26.5711 17.4217 26.3064 17.4088 26.0417C17.4088 25.777 17.4023 25.5332 17.3893 25.3103C17.3764 25.0734 17.3699 24.8923 17.3699 24.7669H18.5366C18.5495 25.1292 18.556 25.4775 18.556 25.8118C18.569 26.1462 18.5884 26.3621 18.6143 26.4597C18.9125 25.8885 19.2949 25.4217 19.7616 25.0595C20.2283 24.6973 20.7987 24.5162 21.4727 24.5162C21.5894 24.5162 21.6996 24.5301 21.8033 24.558C21.92 24.5719 22.0366 24.5928 22.1533 24.6207L22.0172 25.8536C21.8616 25.7979 21.7126 25.77 21.57 25.77C21.0644 25.77 20.6236 25.8606 20.2477 26.0417C19.8847 26.2089 19.5801 26.4457 19.3338 26.7522C19.1005 27.0587 18.9255 27.421 18.8088 27.8389C18.6921 28.243 18.6338 28.6818 18.6338 29.1555V34.4218H17.4671V27.4837ZM24.1369 24.7669H25.3036V34.4218H24.1369V24.7669ZM23.8452 20.9426C23.8452 20.6779 23.9295 20.455 24.098 20.2739C24.2665 20.0928 24.4739 20.0022 24.7202 20.0022C24.9665 20.0022 25.1739 20.0928 25.3425 20.2739C25.511 20.455 25.5953 20.6779 25.5953 20.9426C25.5953 21.2073 25.511 21.4302 25.3425 21.6113C25.1739 21.7925 24.9665 21.883 24.7202 21.883C24.4739 21.883 24.2665 21.7925 24.098 21.6113C23.9295 21.4302 23.8452 21.2073 23.8452 20.9426ZM28.6331 31.9558C28.8794 32.4713 29.2424 32.8684 29.722 33.147C30.2017 33.4117 30.7072 33.5441 31.2387 33.5441C31.485 33.5441 31.7313 33.5023 31.9776 33.4187C32.2239 33.3351 32.4443 33.2167 32.6387 33.0634C32.8332 32.9102 32.9888 32.7291 33.1054 32.5201C33.2351 32.2972 33.2999 32.0464 33.2999 31.7678C33.2999 31.3219 33.1638 30.9876 32.8915 30.7647C32.6323 30.5417 32.3082 30.3676 31.9193 30.2422C31.5304 30.1168 31.1026 30.0123 30.6359 29.9287C30.1692 29.8312 29.7415 29.6919 29.3526 29.5108C28.9637 29.3157 28.6331 29.051 28.3609 28.7167C28.1016 28.3823 27.972 27.9086 27.972 27.2956C27.972 26.8219 28.0627 26.4109 28.2442 26.0626C28.4257 25.7143 28.659 25.4287 28.9442 25.2058C29.2424 24.9689 29.5729 24.7948 29.9359 24.6833C30.2989 24.5719 30.6683 24.5162 31.0443 24.5162C31.7832 24.5162 32.4184 24.6624 32.9499 24.955C33.4943 25.2476 33.9156 25.7073 34.2138 26.3343L33.1638 27.003C32.9434 26.5572 32.6647 26.2228 32.3276 25.9999C32.0035 25.7631 31.5758 25.6447 31.0443 25.6447C30.8369 25.6447 30.6165 25.6795 30.3831 25.7491C30.1628 25.8188 29.9618 25.9163 29.7803 26.0417C29.5989 26.1671 29.4433 26.3273 29.3137 26.5224C29.197 26.7174 29.1387 26.9403 29.1387 27.1911C29.1387 27.623 29.2683 27.9434 29.5276 28.1524C29.7998 28.3614 30.1304 28.5286 30.5193 28.654C30.9082 28.7654 31.3359 28.8629 31.8026 28.9465C32.2693 29.0301 32.6971 29.1694 33.086 29.3645C33.4749 29.5456 33.799 29.8173 34.0582 30.1795C34.3304 30.5278 34.4666 31.0294 34.4666 31.6842C34.4666 32.1857 34.3758 32.6246 34.1943 33.0007C34.0258 33.363 33.786 33.6695 33.4749 33.9202C33.1767 34.171 32.8332 34.3591 32.4443 34.4845C32.0554 34.6099 31.6471 34.6726 31.2193 34.6726C30.4415 34.6726 29.7285 34.5124 29.0803 34.1919C28.4451 33.8715 27.9525 33.3769 27.6025 32.7082L28.6331 31.9558ZM37.0874 24.7669H38.2541V34.4218H37.0874V24.7669ZM36.7957 20.9426C36.7957 20.6779 36.88 20.455 37.0485 20.2739C37.217 20.0928 37.4244 20.0022 37.6707 20.0022C37.917 20.0022 38.1244 20.0928 38.2929 20.2739C38.4615 20.455 38.5457 20.6779 38.5457 20.9426C38.5457 21.2073 38.4615 21.4302 38.2929 21.6113C38.1244 21.7925 37.917 21.883 37.6707 21.883C37.4244 21.883 37.217 21.7925 37.0485 21.6113C36.88 21.4302 36.7957 21.2073 36.7957 20.9426ZM41.5643 27.4837C41.5643 27.3026 41.5579 27.0866 41.5449 26.8358C41.5319 26.5711 41.519 26.3064 41.506 26.0417C41.506 25.777 41.4995 25.5332 41.4866 25.3103C41.4736 25.0734 41.4671 24.8923 41.4671 24.7669H42.6338C42.6468 25.1292 42.6532 25.4775 42.6532 25.8118C42.6662 26.1462 42.6857 26.3621 42.7116 26.4597H42.7699C43.0033 25.9303 43.3922 25.4775 43.9366 25.1013C44.4811 24.7112 45.1163 24.5162 45.8422 24.5162C46.5422 24.5162 47.1126 24.6346 47.5534 24.8714C47.9941 25.1083 48.3376 25.4217 48.5839 25.8118C48.8432 26.188 49.0182 26.6269 49.1089 27.1284C49.2127 27.63 49.2645 28.1454 49.2645 28.6749V34.4218H48.0978V28.7376C48.0978 28.3475 48.0654 27.9713 48.0006 27.6091C47.9358 27.2329 47.8191 26.8985 47.6506 26.606C47.495 26.3134 47.2682 26.0835 46.97 25.9163C46.6848 25.7352 46.3089 25.6447 45.8422 25.6447C45.4144 25.6447 45.0061 25.7282 44.6172 25.8954C44.2412 26.0487 43.9107 26.2925 43.6255 26.6269C43.3533 26.9473 43.1329 27.3583 42.9644 27.8598C42.8088 28.3475 42.731 28.9256 42.731 29.5944V34.4218H41.5643V27.4837ZM61.3916 33.7949C61.3916 34.993 61.2296 35.9613 60.9055 36.6997C60.5814 37.4381 60.1731 38.0093 59.6805 38.4133C59.2008 38.8173 58.6823 39.089 58.1249 39.2283C57.5675 39.3677 57.0619 39.4373 56.6082 39.4373C56.1545 39.4373 55.7072 39.3886 55.2665 39.291C54.8387 39.2074 54.4304 39.0751 54.0415 38.894C53.6526 38.7268 53.2961 38.5178 52.972 38.267C52.6609 38.0163 52.3886 37.7306 52.1553 37.4102L53.0692 36.4907C53.484 37.1176 54.0026 37.5774 54.6248 37.87C55.247 38.1625 55.9082 38.3088 56.6082 38.3088C57.2045 38.3088 57.7036 38.2252 58.1054 38.058C58.5203 37.8909 58.8573 37.668 59.1166 37.3893C59.3888 37.1246 59.5962 36.8251 59.7388 36.4907C59.8944 36.1703 60.0045 35.8429 60.0694 35.5085C60.1471 35.1881 60.1925 34.8816 60.2055 34.589C60.2184 34.2964 60.2249 34.0596 60.2249 33.8785V32.541H60.186C59.849 33.1261 59.3888 33.5859 58.8054 33.9202C58.2351 34.2546 57.561 34.4218 56.7832 34.4218C56.1221 34.4218 55.4998 34.2964 54.9165 34.0456C54.3331 33.7809 53.8211 33.4257 53.3801 32.9798C52.9525 32.5201 52.609 31.9907 52.3498 31.3916C52.1035 30.7925 51.9803 30.1516 51.9803 29.469C51.9803 28.7863 52.1035 28.1454 52.3498 27.5464C52.609 26.9473 52.9525 26.4248 53.3801 25.979C53.8211 25.5332 54.3331 25.1779 54.9165 24.9132C55.4998 24.6485 56.1221 24.5162 56.7832 24.5162C57.561 24.5162 58.2351 24.6833 58.8054 25.0177C59.3888 25.3521 59.849 25.8118 60.186 26.397H60.2249V24.7669H61.3916V33.7949ZM60.2638 29.469C60.2638 28.9396 60.1666 28.445 59.9721 27.9852C59.7906 27.5115 59.5379 27.1075 59.2138 26.7731C58.9027 26.4248 58.5267 26.1532 58.086 25.9581C57.6582 25.7491 57.198 25.6447 56.7054 25.6447C56.2128 25.6447 55.7461 25.7491 55.3054 25.9581C54.8776 26.1532 54.5016 26.4248 54.1776 26.7731C53.8664 27.1075 53.6137 27.5115 53.4192 27.9852C53.2377 28.445 53.147 28.9396 53.147 29.469C53.147 29.9984 53.2377 30.4999 53.4192 30.9736C53.6137 31.4334 53.8664 31.8374 54.1776 32.1857C54.5016 32.5201 54.8776 32.7918 55.3054 33.0007C55.7461 33.1958 56.2128 33.2933 56.7054 33.2933C57.198 33.2933 57.6582 33.1958 58.086 33.0007C58.5267 32.7918 58.9027 32.5201 59.2138 32.1857C59.5379 31.8374 59.7906 31.4334 59.9721 30.9736C60.1666 30.4999 60.2638 29.9984 60.2638 29.469Z" fill="#232B19"/>
<path d="M72.2372 27.2538C71.8094 26.6826 71.2455 26.397 70.5455 26.397C70.2992 26.397 70.0593 26.4597 69.826 26.5851C69.5927 26.7105 69.476 26.9264 69.476 27.2329C69.476 27.4837 69.5927 27.6718 69.826 27.7972C70.0723 27.9086 70.3769 28.0131 70.7399 28.1106C71.1158 28.1942 71.5112 28.2918 71.926 28.4032C72.3538 28.5007 72.7492 28.661 73.1122 28.8839C73.4881 29.1068 73.7928 29.4133 74.0261 29.8034C74.2724 30.1795 74.3955 30.6881 74.3955 31.3289C74.3955 31.9837 74.2594 32.5271 73.9872 32.959C73.7279 33.3769 73.3909 33.7183 72.9761 33.983C72.5612 34.2338 72.0946 34.4079 71.576 34.5054C71.0575 34.6169 70.5455 34.6726 70.0399 34.6726C69.3788 34.6726 68.7112 34.5751 68.0371 34.3801C67.363 34.1711 66.7926 33.8088 66.3259 33.2934L68.0954 31.1827C68.3676 31.5449 68.6658 31.8235 68.9899 32.0186C69.3269 32.1997 69.7158 32.2902 70.1566 32.2902C70.4936 32.2902 70.7982 32.2415 71.0705 32.144C71.3427 32.0325 71.4788 31.8375 71.4788 31.5588C71.4788 31.2941 71.3557 31.0991 71.1094 30.9737C70.876 30.8344 70.5714 30.7229 70.1955 30.6393C69.8325 30.5418 69.4371 30.4443 69.0093 30.3467C68.5945 30.2353 68.1991 30.0751 67.8232 29.8661C67.4602 29.6571 67.1556 29.3645 66.9093 28.9884C66.6759 28.5983 66.5593 28.0828 66.5593 27.4419C66.5593 26.8428 66.6695 26.3273 66.8898 25.8954C67.1232 25.4636 67.4213 25.1083 67.7843 24.8296C68.1602 24.551 68.588 24.349 69.0677 24.2236C69.5473 24.0843 70.0334 24.0146 70.526 24.0146C71.1483 24.0146 71.777 24.1121 72.4122 24.3072C73.0474 24.5022 73.5853 24.8505 74.0261 25.3521L72.2372 27.2538ZM84.8354 32.6664C84.3687 33.3073 83.7789 33.8019 83.0659 34.1502C82.353 34.4985 81.614 34.6726 80.8492 34.6726C80.1233 34.6726 79.4362 34.5472 78.7881 34.2965C78.1529 34.0457 77.5954 33.6904 77.1158 33.2307C76.6491 32.757 76.2797 32.1927 76.0074 31.5379C75.7352 30.8831 75.5991 30.1517 75.5991 29.3436C75.5991 28.5356 75.7352 27.8041 76.0074 27.1493C76.2797 26.4945 76.6491 25.9372 77.1158 25.4775C77.5954 25.0038 78.1529 24.6416 78.7881 24.3908C79.4362 24.14 80.1233 24.0146 80.8492 24.0146C81.5233 24.0146 82.1326 24.14 82.677 24.3908C83.2345 24.6416 83.7011 25.0038 84.0771 25.4775C84.466 25.9372 84.7641 26.4945 84.9715 27.1493C85.1789 27.8041 85.2826 28.5356 85.2826 29.3436V30.3258H78.5158C78.6325 30.9249 78.8853 31.4056 79.2742 31.7678C79.6631 32.1161 80.1427 32.2902 80.7131 32.2902C81.1927 32.2902 81.5946 32.1788 81.9187 31.9559C82.2557 31.719 82.5474 31.4195 82.7937 31.0573L84.8354 32.6664ZM82.3659 28.1942C82.3789 27.6648 82.2168 27.212 81.8798 26.8359C81.5427 26.4597 81.1085 26.2716 80.5768 26.2716C80.2529 26.2716 79.9677 26.3273 79.7214 26.4388C79.4751 26.5503 79.2612 26.6965 79.0797 26.8777C78.9112 27.0448 78.7751 27.2469 78.6714 27.4837C78.5806 27.7066 78.5288 27.9435 78.5158 28.1942H82.3659ZM96.001 32.6664C95.5343 33.3073 94.9445 33.8019 94.2315 34.1502C93.5186 34.4985 92.7797 34.6726 92.0148 34.6726C91.2889 34.6726 90.6018 34.5472 89.9537 34.2965C89.3185 34.0457 88.761 33.6904 88.2814 33.2307C87.8147 32.757 87.4453 32.1927 87.173 31.5379C86.9008 30.8831 86.7647 30.1517 86.7647 29.3436C86.7647 28.5356 86.9008 27.8041 87.173 27.1493C87.4453 26.4945 87.8147 25.9372 88.2814 25.4775C88.761 25.0038 89.3185 24.6416 89.9537 24.3908C90.6018 24.14 91.2889 24.0146 92.0148 24.0146C92.6889 24.0146 93.2982 24.14 93.8426 24.3908C94.4001 24.6416 94.8667 25.0038 95.2427 25.4775C95.6316 25.9372 95.9297 26.4945 96.1371 27.1493C96.3445 27.8041 96.4482 28.5356 96.4482 29.3436V30.3258H89.6814C89.7981 30.9249 90.0509 31.4056 90.4398 31.7678C90.8287 32.1161 91.3083 32.2902 91.8787 32.2902C92.3583 32.2902 92.7602 32.1788 93.0843 31.9559C93.4213 31.719 93.713 31.4195 93.9593 31.0573L96.001 32.6664ZM93.5315 28.1942C93.5445 27.6648 93.3824 27.212 93.0454 26.8359C92.7084 26.4597 92.2741 26.2716 91.7424 26.2716C91.4185 26.2716 91.1333 26.3273 90.8868 26.4388C90.6407 26.5503 90.4268 26.6965 90.2453 26.8777C90.0768 27.0448 89.9407 27.2469 89.837 27.4837C89.7463 27.7066 89.6944 27.9435 89.6814 28.1942H93.5315ZM108.139 34.4218H105.455V33.0844H105.417C105.3 33.2655 105.144 33.4536 104.95 33.6486C104.768 33.8297 104.548 33.9969 104.289 34.1502C104.042 34.3034 103.764 34.4288 103.453 34.5263C103.154 34.6239 102.843 34.6726 102.519 34.6726C101.819 34.6726 101.184 34.5472 100.614 34.2965C100.043 34.0318 99.5507 33.6695 99.1359 33.2098C98.734 32.7361 98.4229 32.1788 98.2025 31.5379C97.9822 30.897 97.872 30.1935 97.872 29.4272C97.872 28.7167 97.9692 28.041 98.1636 27.4001C98.3711 26.7453 98.6563 26.1671 99.0192 25.6656C99.3952 25.164 99.8489 24.767 100.38 24.4744C100.912 24.1679 101.515 24.0146 102.189 24.0146C102.798 24.0146 103.362 24.1191 103.88 24.3281C104.412 24.5231 104.846 24.8645 105.183 25.3521H105.222V18.6229H108.139V34.4218ZM105.455 29.3436C105.455 28.5774 105.248 27.9574 104.833 27.4837C104.431 27.01 103.861 26.7732 103.122 26.7732C102.383 26.7732 101.806 27.01 101.391 27.4837C100.99 27.9574 100.789 28.5774 100.789 29.3436C100.789 30.1099 100.99 30.7299 101.391 31.2036C101.806 31.6772 102.383 31.9141 103.122 31.9141C103.861 31.9141 104.431 31.6772 104.833 31.2036C105.248 30.7299 105.455 30.1099 105.455 29.3436ZM115.817 27.2538C115.389 26.6826 114.825 26.397 114.125 26.397C113.879 26.397 113.639 26.4597 113.406 26.5851C113.173 26.7105 113.056 26.9264 113.056 27.2329C113.056 27.4837 113.173 27.6718 113.406 27.7972C113.652 27.9086 113.957 28.0131 114.32 28.1106C114.696 28.1942 115.091 28.2918 115.506 28.4032C115.934 28.5007 116.329 28.661 116.692 28.8839C117.068 29.1068 117.373 29.4133 117.606 29.8034C117.852 30.1795 117.976 30.6881 117.976 31.3289C117.976 31.9837 117.839 32.5271 117.567 32.959C117.308 33.3769 116.971 33.7183 116.556 33.983C116.141 34.2338 115.675 34.4079 115.156 34.5054C114.637 34.6169 114.125 34.6726 113.62 34.6726C112.959 34.6726 112.291 34.5751 111.617 34.3801C110.943 34.1711 110.373 33.8088 109.906 33.2934L111.675 31.1827C111.948 31.5449 112.246 31.8235 112.57 32.0186C112.907 32.1997 113.296 32.2902 113.737 32.2902C114.074 32.2902 114.378 32.2415 114.65 32.144C114.923 32.0325 115.059 31.8375 115.059 31.5588C115.059 31.2941 114.936 31.0991 114.689 30.9737C114.456 30.8344 114.151 30.7229 113.775 30.6393C113.412 30.5418 113.017 30.4443 112.589 30.3467C112.174 30.2353 111.779 30.0751 111.403 29.8661C111.04 29.6571 110.736 29.3645 110.489 28.9884C110.256 28.5983 110.139 28.0828 110.139 27.4419C110.139 26.8428 110.249 26.3273 110.47 25.8954C110.703 25.4636 111.001 25.1083 111.364 24.8296C111.74 24.551 112.168 24.349 112.648 24.2236C113.127 24.0843 113.613 24.0146 114.106 24.0146C114.728 24.0146 115.357 24.1121 115.992 24.3072C116.627 24.5022 117.165 24.8505 117.606 25.3521L115.817 27.2538Z" fill="#232B19"/>
</svg>
