<svg width="266" height="323" viewBox="0 0 266 323" fill="none" xmlns="http://www.w3.org/2000/svg">
<path d="M186.783 159.896L177.296 163.058L183.619 182.032L193.106 178.87L186.783 159.896ZM89.7607 211.546L97.7014 217.625L109.858 201.743L101.917 195.665L89.7607 211.546ZM118.924 36.7601L115.827 27.2517L118.924 36.7601ZM193.106 178.87C220.168 169.851 237.98 153.195 246.594 133.232C255.145 113.416 254.216 91.2837 245.626 71.9964C228.172 32.8033 180.054 6.33244 115.827 27.2517L122.021 46.2684C177.792 28.1034 214.594 51.477 227.356 80.1329C233.875 94.7702 234.377 111.064 228.231 125.308C222.147 139.407 209.132 152.448 186.783 159.896L193.106 178.87ZM115.827 27.2517C83.6546 37.7307 53.0101 64.6724 42.486 99.1145C37.1596 116.546 37.0568 135.769 44.4928 155.266C51.8983 174.683 66.5448 193.776 89.7607 211.546L101.917 195.665C80.9373 179.606 68.9765 163.337 63.1799 148.139C57.4138 133.02 57.5142 118.373 61.613 104.959C69.9391 77.7103 95.0329 55.0588 122.021 46.2684L115.827 27.2517Z" fill="#F1F1F1"/>
<path d="M181.402 117.293L185.599 108.216L167.446 99.8234L163.249 108.9L181.402 117.293ZM22.9443 261.236L26.9915 252.091L8.70232 243.998L4.6551 253.143L22.9443 261.236ZM163.249 108.9C153.546 129.883 137.462 169.163 118.897 207.16C109.704 225.976 100.145 243.945 90.8651 258.415C81.3275 273.288 72.949 283.054 66.4714 287.045L76.9608 304.072C87.6364 297.496 98.0762 284.219 107.701 269.211C117.584 253.799 127.531 235.046 136.867 215.938C155.362 178.085 172.429 136.7 181.402 117.293L163.249 108.9ZM66.4714 287.045C52.2993 295.775 38.226 294.422 29.6884 288.813C25.4246 286.011 22.5053 282.173 21.2022 277.788C19.9155 273.457 19.9978 267.893 22.9443 261.236L4.6551 253.143C0.00624287 263.647 -0.757888 274.101 2.03025 283.485C4.802 292.813 10.8788 300.385 18.7047 305.527C34.3464 315.805 56.8266 316.475 76.9608 304.072L66.4714 287.045Z" fill="#F1F1F1"/>
<path d="M139.541 246.152C153.962 254.171 149.341 289.141 119.608 292.664" stroke="#F1F1F1" stroke-width="20"/>
</svg>
