<svg width="80" height="80" viewBox="0 0 80 80" fill="none" xmlns="http://www.w3.org/2000/svg">
<rect width="80" height="80" fill="#364C1C"/>
<path d="M48.3787 39.4756L47.1929 39.8708L47.9833 42.2425L49.1692 41.8473L48.3787 39.4756ZM34.464 46.5817L35.4565 47.3415L36.9761 45.3563L35.9835 44.5966L34.464 46.5817ZM38.5478 21.5652L38.1606 20.3766L38.5478 21.5652ZM49.1692 41.8473C53.021 40.5636 55.5402 38.1996 56.7565 35.3809C57.9649 32.5805 57.8352 29.4491 56.618 26.7161C54.1494 21.1728 47.3283 17.3906 38.1606 20.3766L38.9349 22.7537C47.0455 20.112 52.4522 23.507 54.3343 27.7332C55.2925 29.8849 55.369 32.2864 54.4611 34.3904C53.5611 36.4762 51.6415 38.3882 48.3787 39.4756L49.1692 41.8473ZM38.1606 20.3766C33.5774 21.8695 29.2176 25.7081 27.7231 30.599C26.9678 33.0708 26.953 35.7952 28.0079 38.561C29.0589 41.3168 31.1423 44.0392 34.464 46.5817L35.9835 44.5966C32.9414 42.268 31.1937 39.8987 30.3438 37.6702C29.4977 35.4517 29.5121 33.2992 30.114 31.3296C31.3337 27.3378 34.9997 24.0355 38.9349 22.7537L38.1606 20.3766Z" fill="#F1F1F1"/>
<path d="M47.3717 33.0814L47.8963 31.9468L45.6271 30.8977L45.1025 32.0323L47.3717 33.0814ZM24.5541 53.8105L25.06 52.6675L22.7739 51.6558L22.268 52.7989L24.5541 53.8105ZM45.1025 32.0323C43.7124 35.0387 41.387 40.7145 38.7146 46.1843C37.3894 48.8965 36.0094 51.4912 34.6675 53.5837C33.2933 55.7266 32.0674 57.1661 31.0948 57.7652L32.406 59.8937C33.9033 58.9713 35.3869 57.093 36.772 54.9331C38.1893 52.723 39.6179 50.0302 40.9608 47.2816C43.6245 41.8298 46.0727 35.8908 47.3717 33.0814L45.1025 32.0323ZM31.0948 57.7652C28.9976 59.0571 26.8913 58.8689 25.5946 58.0168C24.9468 57.5912 24.4965 57.0031 24.2949 56.3247C24.0954 55.6532 24.1137 54.8056 24.5541 53.8105L22.268 52.7989C21.6147 54.2748 21.5112 55.7337 21.8984 57.0369C22.2836 58.3332 23.1286 59.3879 24.2216 60.1061C26.4064 61.5416 29.5635 61.6447 32.406 59.8937L31.0948 57.7652Z" fill="#F1F1F1"/>
<path d="M41.5166 51.7153C43.5929 52.87 42.9277 57.9053 38.6464 58.4126" stroke="#F1F1F1" stroke-width="2.5"/>
</svg>
