<svg width="32" height="32" viewBox="0 0 32 32" fill="none" xmlns="http://www.w3.org/2000/svg">
<path fill-rule="evenodd" clip-rule="evenodd" d="M16 0.399994C7.2 0.399994 0 7.59999 0 16.4C0 23.5 4.6 29.5 10.9 31.6C11.7 31.7 12 31.3 12 30.8C12 30.4 12 29.4 12 28.1C7.5 29.1 6.6 26 6.6 26C5.9 24.2 4.8 23.7 4.8 23.7C3.3 22.7 4.9 22.7 4.9 22.7C6.5 22.8 7.4 24.3 7.4 24.3C8.8 26.7 11.1 26 12.1 25.6C12.2 24.6 12.7 23.9 13.1 23.5C9.5 23.1 5.8 21.7 5.8 15.6C5.8 13.9 6.4 12.4 7.4 11.3C7.2 10.9 6.7 9.29999 7.6 7.09999C7.6 7.09999 8.9 6.69999 12 8.69999C13.3 8.29999 14.6 8.19999 16 8.19999C17.4 8.19999 18.7 8.39999 20 8.69999C23.1 6.59999 24.4 6.99999 24.4 6.99999C25.3 9.19999 24.7 10.8 24.6 11.2C25.6 12.3 26.2 13.7 26.2 15.5C26.2 21.6 22.5 23 18.9 23.4C19.5 23.9 20 24.9 20 26.4C20 28.5 20 30.3 20 30.8C20 31.2 20.3 31.7 21.1 31.6C27.4 29.5 32 23.5 32 16.4C32 7.59999 24.8 0.399994 16 0.399994Z" fill="#364C1C"/>
</svg>
