<svg width="32" height="32" viewBox="0 0 32 32" fill="none" xmlns="http://www.w3.org/2000/svg">
<g clip-path="url(#clip0)">
<path d="M32 6.1C30.8 6.6 29.6 7 28.2 7.1C29.6 6.3 30.6 5 31.1 3.5C29.8 4.3 28.4 4.8 26.9 5.1C25.7 3.8 24 3 22.2 3C18.6 3 15.6 5.9 15.6 9.6C15.6 10.1 15.7 10.6 15.8 11.1C10.3 10.8 5.49999 8.2 2.19999 4.2C1.59999 5.2 1.29999 6.3 1.29999 7.5C1.29999 9.8 2.49999 11.8 4.19999 13C3.09999 13 2.09999 12.7 1.19999 12.2V12.3C1.19999 15.5 3.49999 18.1 6.49999 18.7C5.89999 18.8 5.39999 18.9 4.79999 18.9C4.39999 18.9 3.99999 18.9 3.59999 18.8C4.39999 21.4 6.89999 23.3 9.69999 23.4C7.49999 25.2 4.59999 26.2 1.49999 26.2C0.999994 26.2 0.399994 26.2 -0.100006 26.1C2.89999 27.9 6.39999 29 10.1 29C22.2 29 28.8 19 28.8 10.3C28.8 10 28.8 9.7 28.8 9.5C30 8.5 31.1 7.4 32 6.1Z" fill="#364C1C"/>
</g>
<defs>
<clipPath id="clip0">
<rect width="32" height="32" fill="white"/>
</clipPath>
</defs>
</svg>
