<svg width="32" height="32" viewBox="0 0 32 32" fill="none" xmlns="http://www.w3.org/2000/svg">
<path fill-rule="evenodd" clip-rule="evenodd" d="M16 32C7.2 32 0 24.8 0 16C0 7.2 7.2 0 16 0C24.8 0 32 7.2 32 16C32 24.8 24.8 32 16 32ZM29.5 18.2C29.05 18.05 25.25 16.95 21 17.6C22.8 22.5 23.5 26.5 23.65 27.35C26.7 25.3 28.9 22 29.5 18.2ZM21.35 28.6C21.15 27.4 20.35 23.2 18.45 18.25C18.4 18.25 18.4 18.25 18.35 18.3C10.65 21 7.85 26.35 7.65 26.85C9.95 28.65 12.9 29.75 16.05 29.75C17.9 29.7 19.7 29.3 21.35 28.6ZM5.85 25.15C6.15 24.6 9.9 18.4 16.95 16.15C17.15 16.1 17.3 16.05 17.5 16C17.15 15.2 16.8 14.45 16.4 13.7C9.6 15.75 2.95 15.65 2.35 15.65C2.35 15.8 2.35 15.95 2.35 16.05C2.35 19.55 3.65 22.75 5.85 25.15ZM2.6 13.2C3.2 13.2 8.85 13.25 15.25 11.55C13 7.55 10.55 4.15 10.2 3.65C6.35 5.45 3.5 9 2.6 13.2ZM12.8 2.75C13.2 3.25 15.65 6.65 17.9 10.75C22.75 8.95 24.8 6.15 25.05 5.8C22.65 3.65 19.45 2.35 16 2.35C14.9 2.35 13.85 2.5 12.8 2.75ZM26.6 7.4C26.3 7.8 24 10.75 18.95 12.8C19.25 13.45 19.55 14.1 19.85 14.8C19.95 15.05 20.05 15.25 20.15 15.5C24.7 14.95 29.2 15.85 29.65 15.95C29.65 12.65 28.5 9.7 26.6 7.4Z" fill="#364C1C"/>
</svg>
